<svg width="16" height="17" viewBox="0 0 16 17" fill="none" xmlns="http://www.w3.org/2000/svg">
<g clip-path="url(#clip0_5_209)">
<path d="M8 1.91059C10.1375 1.91059 10.3906 1.91997 11.2312 1.95747C12.0125 1.99184 12.4344 2.1231 12.7156 2.23247C13.0875 2.37622 13.3562 2.55122 13.6344 2.82934C13.9156 3.11059 14.0875 3.37622 14.2312 3.7481C14.3406 4.02934 14.4719 4.45434 14.5063 5.23247C14.5437 6.07622 14.5531 6.32935 14.5531 8.46372C14.5531 10.6012 14.5437 10.8544 14.5063 11.695C14.4719 12.4763 14.3406 12.8981 14.2312 13.1794C14.0875 13.5513 13.9125 13.82 13.6344 14.0981C13.3531 14.3794 13.0875 14.5513 12.7156 14.695C12.4344 14.8044 12.0094 14.9356 11.2312 14.97C10.3875 15.0075 10.1344 15.0169 8 15.0169C5.8625 15.0169 5.60938 15.0075 4.76875 14.97C3.9875 14.9356 3.56562 14.8044 3.28437 14.695C2.9125 14.5513 2.64375 14.3762 2.36562 14.0981C2.08437 13.8169 1.9125 13.5513 1.76875 13.1794C1.65937 12.8981 1.52813 12.4731 1.49375 11.695C1.45625 10.8513 1.44687 10.5981 1.44687 8.46372C1.44687 6.32622 1.45625 6.07309 1.49375 5.23247C1.52813 4.45122 1.65937 4.02934 1.76875 3.7481C1.9125 3.37622 2.0875 3.10747 2.36562 2.82934C2.64687 2.54809 2.9125 2.37622 3.28437 2.23247C3.56562 2.1231 3.99063 1.99184 4.76875 1.95747C5.60938 1.91997 5.8625 1.91059 8 1.91059ZM8 0.469971C5.82812 0.469971 5.55625 0.479346 4.70312 0.516846C3.85313 0.554346 3.26875 0.691846 2.7625 0.888721C2.23438 1.09497 1.7875 1.36685 1.34375 1.81372C0.896875 2.25747 0.625 2.70435 0.41875 3.22935C0.221875 3.73872 0.084375 4.31997 0.046875 5.16997C0.009375 6.02622 0 6.29809 0 8.46997C0 10.6419 0.009375 10.9137 0.046875 11.7669C0.084375 12.6169 0.221875 13.2012 0.41875 13.7075C0.625 14.2356 0.896875 14.6825 1.34375 15.1262C1.7875 15.57 2.23438 15.845 2.75938 16.0481C3.26875 16.245 3.85 16.3825 4.7 16.42C5.55312 16.4575 5.825 16.4669 7.99687 16.4669C10.1687 16.4669 10.4406 16.4575 11.2937 16.42C12.1438 16.3825 12.7281 16.245 13.2344 16.0481C13.7594 15.845 14.2062 15.57 14.65 15.1262C15.0937 14.6825 15.3687 14.2356 15.5719 13.7106C15.7687 13.2012 15.9062 12.62 15.9438 11.77C15.9812 10.9169 15.9906 10.645 15.9906 8.4731C15.9906 6.30122 15.9812 6.02934 15.9438 5.17622C15.9062 4.32622 15.7687 3.74184 15.5719 3.23559C15.375 2.70434 15.1031 2.25747 14.6562 1.81372C14.2125 1.36997 13.7656 1.09497 13.2406 0.891846C12.7312 0.694971 12.15 0.557471 11.3 0.519971C10.4437 0.479346 10.1719 0.469971 8 0.469971Z" fill="white"/>
<path d="M8 4.3606C5.73125 4.3606 3.89062 6.20123 3.89062 8.46998C3.89062 10.7388 5.73125 12.5794 8 12.5794C10.2688 12.5794 12.1094 10.7388 12.1094 8.46998C12.1094 6.20123 10.2688 4.3606 8 4.3606ZM8 11.1356C6.52812 11.1356 5.33438 9.94186 5.33438 8.46998C5.33438 6.99811 6.52812 5.80435 8 5.80435C9.47187 5.80435 10.6656 6.99811 10.6656 8.46998C10.6656 9.94186 9.47187 11.1356 8 11.1356Z" fill="white"/>
<path d="M13.2313 4.19791C13.2313 4.72916 12.8 5.15729 12.2719 5.15729C11.7406 5.15729 11.3125 4.72604 11.3125 4.19791C11.3125 3.66666 11.7438 3.23853 12.2719 3.23853C12.8 3.23853 13.2313 3.66979 13.2313 4.19791Z" fill="white"/>
</g>
<defs>
<clipPath id="clip0_5_209">
<rect width="16" height="16" fill="white" transform="translate(0 0.469971)"/>
</clipPath>
</defs>
</svg>
