<svg width="16" height="17" viewBox="0 0 16 17" fill="none" xmlns="http://www.w3.org/2000/svg">
<g clip-path="url(#clip0_5_221)">
<path d="M14.8156 0.469971H1.18125C0.528125 0.469971 0 0.985596 0 1.6231V15.3138C0 15.9513 0.528125 16.47 1.18125 16.47H14.8156C15.4688 16.47 16 15.9513 16 15.3169V1.6231C16 0.985596 15.4688 0.469971 14.8156 0.469971ZM4.74687 14.1044H2.37188V6.46684H4.74687V14.1044ZM3.55938 5.42622C2.79688 5.42622 2.18125 4.81059 2.18125 4.05122C2.18125 3.29185 2.79688 2.67622 3.55938 2.67622C4.31875 2.67622 4.93437 3.29185 4.93437 4.05122C4.93437 4.80747 4.31875 5.42622 3.55938 5.42622ZM13.6344 14.1044H11.2625V10.3919C11.2625 9.50747 11.2469 8.36684 10.0281 8.36684C8.79375 8.36684 8.60625 9.33247 8.60625 10.3294V14.1044H6.2375V6.46684H8.5125V7.5106H8.54375C8.85938 6.9106 9.63438 6.27622 10.7875 6.27622C13.1906 6.27622 13.6344 7.85747 13.6344 9.91372V14.1044Z" fill="white"/>
</g>
<defs>
<clipPath id="clip0_5_221">
<rect width="16" height="16" fill="white" transform="translate(0 0.469971)"/>
</clipPath>
</defs>
</svg>
