<svg width="16" height="17" viewBox="0 0 16 17" fill="none" xmlns="http://www.w3.org/2000/svg">
<g clip-path="url(#clip0_5_202)">
<mask id="mask0_5_202" style="mask-type:luminance" maskUnits="userSpaceOnUse" x="0" y="0" width="16" height="17">
<path d="M16 0.469971H0V16.47H16V0.469971Z" fill="white"/>
</mask>
<g mask="url(#mask0_5_202)">
<path d="M5.03344 14.97C11.0697 14.97 14.3722 9.96777 14.3722 5.63121C14.3722 5.49059 14.3691 5.34684 14.3628 5.20621C15.0053 4.74161 15.5597 4.16614 16 3.50684C15.4017 3.77304 14.7664 3.94689 14.1159 4.02246C14.8009 3.61191 15.3137 2.96695 15.5594 2.20715C14.915 2.58901 14.2104 2.85838 13.4756 3.00371C12.9806 2.47768 12.326 2.12938 11.6131 2.01267C10.9003 1.89596 10.1688 2.01734 9.53183 2.35803C8.89486 2.69873 8.38786 3.23977 8.08923 3.89751C7.79059 4.55525 7.71695 5.29305 7.87968 5.99684C6.57499 5.93136 5.29862 5.59244 4.13332 5.00204C2.96802 4.41163 1.93979 3.58293 1.11531 2.56965C0.696266 3.29213 0.568037 4.14707 0.756687 4.9607C0.945336 5.77433 1.43671 6.4856 2.13094 6.94996C1.60975 6.93341 1.09998 6.79309 0.64375 6.54058V6.58121C0.643283 7.3394 0.905398 8.07436 1.38554 8.66115C1.86568 9.24794 2.53421 9.65034 3.2775 9.79996C2.7947 9.93206 2.28799 9.9513 1.79656 9.85621C2.0063 10.5083 2.41438 11.0786 2.96384 11.4876C3.51331 11.8965 4.17674 12.1237 4.86156 12.1375C3.69895 13.0507 2.26278 13.5461 0.784375 13.5437C0.522191 13.5433 0.260266 13.5273 0 13.4956C1.5019 14.4592 3.24902 14.9709 5.03344 14.97Z" fill="white"/>
</g>
</g>
<defs>
<clipPath id="clip0_5_202">
<rect width="16" height="16" fill="white" transform="translate(0 0.469971)"/>
</clipPath>
</defs>
</svg>
