<svg width="16" height="17" viewBox="0 0 16 17" fill="none" xmlns="http://www.w3.org/2000/svg">
<g clip-path="url(#clip0_5_214)">
<mask id="mask0_5_214" style="mask-type:luminance" maskUnits="userSpaceOnUse" x="0" y="0" width="16" height="17">
<path d="M16 0.469971H0V16.47H16V0.469971Z" fill="white"/>
</mask>
<g mask="url(#mask0_5_214)">
<path d="M15.8406 5.26968C15.8406 5.26968 15.6844 4.16655 15.2031 3.68218C14.5937 3.04468 13.9125 3.04155 13.6 3.00405C11.3625 2.84155 8.00313 2.84155 8.00313 2.84155H7.99688C7.99688 2.84155 4.63751 2.84155 2.4 3.00405C2.0875 3.04155 1.40625 3.04468 0.796875 3.68218C0.315625 4.16655 0.1625 5.26968 0.1625 5.26968C0.1625 5.26968 0 6.56655 0 7.8603V9.0728C0 10.3666 0.159375 11.6635 0.159375 11.6635C0.159375 11.6635 0.315625 12.7666 0.79375 13.251C1.40313 13.8885 2.20313 13.8666 2.55938 13.9353C3.84063 14.0572 8 14.0947 8 14.0947C8 14.0947 11.3625 14.0885 13.6 13.9291C13.9125 13.8916 14.5937 13.8885 15.2031 13.251C15.6844 12.7666 15.8406 11.6635 15.8406 11.6635C15.8406 11.6635 16 10.3697 16 9.0728V7.8603C16 6.56655 15.8406 5.26968 15.8406 5.26968ZM6.34688 10.5447V6.0478L10.6687 8.30405L6.34688 10.5447Z" fill="white"/>
</g>
</g>
<defs>
<clipPath id="clip0_5_214">
<rect width="16" height="16" fill="white" transform="translate(0 0.469971)"/>
</clipPath>
</defs>
</svg>
