<svg width="142" height="42" viewBox="0 0 142 42" fill="none" xmlns="http://www.w3.org/2000/svg">
<path d="M65.3368 10.0775C64.9204 9.95255 64.2541 9.86926 63.6295 9.86926C61.9221 9.86926 59.2154 10.5355 58.1327 12.9508V10.0775H51.8447V31.3567H58.3409V22.0704C58.3409 17.8229 60.6729 16.2822 63.2963 16.2822C63.921 16.2822 64.6289 16.3238 65.3368 16.4904V10.0775Z" fill="white"/>
<path d="M77.3295 26.0264C74.9142 26.0264 72.5406 24.2774 72.5406 20.6962C72.5406 17.1149 74.8726 15.4076 77.3295 15.4076C79.7864 15.4076 82.1183 17.0733 82.1183 20.6962C82.1183 24.319 79.828 26.0264 77.3295 26.0264ZM77.3295 9.45276C70.9998 9.45276 66.0444 14.1167 66.0444 20.7378C66.0444 27.3589 70.9998 32.0645 77.3295 32.0645C83.7007 32.0645 88.6145 27.3589 88.6145 20.7378C88.6145 14.1167 83.7007 9.45276 77.3295 9.45276Z" fill="white"/>
<path d="M100.732 26.0264C98.3171 26.0264 95.9435 24.2774 95.9435 20.6962C95.9435 17.1149 98.2754 15.4076 100.732 15.4076C103.189 15.4076 105.521 17.0733 105.521 20.6962C105.521 24.319 103.231 26.0264 100.732 26.0264ZM100.732 9.45276C94.4027 9.45276 89.4473 14.1167 89.4473 20.7378C89.4473 27.3589 94.4027 32.0645 100.732 32.0645C107.104 32.0645 112.017 27.3589 112.017 20.7378C112.017 14.1167 107.104 9.45276 100.732 9.45276Z" fill="white"/>
<path d="M126.509 15.5742V10.0774H121.887V8.45337C121.887 6.07977 123.511 5.58006 124.677 5.58006C125.718 5.58006 126.259 5.70499 126.592 5.78827V0.458067C126.009 0.166571 124.843 0 123.511 0C118.347 0 115.391 3.33138 115.391 8.20352V10.0358H112.018V15.5326H115.391V31.3566H121.887V15.5326H126.509V15.5742Z" fill="white"/>
<path d="M142 10.0775C141.583 9.95255 140.917 9.86926 140.293 9.86926C138.585 9.86926 135.878 10.5355 134.796 12.9508V10.0775H128.508V31.3567H135.004V22.0704C135.004 17.8229 137.336 16.2822 139.959 16.2822C140.584 16.2822 141.292 16.3238 142 16.4904V10.0775Z" fill="white"/>
<path d="M27.4839 0.041748H13.7419C6.16305 0.041748 0 6.2048 0 13.7837V27.5256C0 35.1045 6.16305 41.2676 13.7419 41.2676H27.4839C35.0628 41.2676 41.2258 35.1045 41.2258 27.5256V13.7837C41.2258 6.2048 35.0628 0.041748 27.4839 0.041748ZM35.5208 28.6083H25.1103C24.9853 28.6083 24.8604 28.5667 24.7771 28.4834L20.9044 24.6107C20.7378 24.4441 20.4464 24.4441 20.2381 24.6107L16.3654 28.4834C16.2821 28.5667 16.1572 28.6083 16.0323 28.6083H5.6217C5.20528 28.6083 4.99707 28.1086 5.28857 27.8171L20.1965 12.9092C20.3631 12.7426 20.6546 12.7426 20.8628 12.9092L26.0264 18.0728V15.7409H25.6933C25.61 15.7409 25.5683 15.6992 25.5683 15.6159V14.908C25.5683 14.8247 25.61 14.7831 25.6933 14.7831H30.9402C31.0235 14.7831 31.0651 14.8247 31.0651 14.908V15.6159C31.0651 15.6992 31.0235 15.7409 30.9402 15.7409H30.6903V22.6118L35.854 27.7755C36.1455 28.1086 35.9372 28.6083 35.5208 28.6083Z" fill="white"/>
</svg>
